<?xml version="1.0" standalone="no"?>
<!DOCTYPE svg PUBLIC "-//W3C//DTD SVG 20010904//EN"
 "http://www.w3.org/TR/2001/REC-SVG-20010904/DTD/svg10.dtd">
<svg version="1.0" xmlns="http://www.w3.org/2000/svg"
 width="600.000000pt" height="600.000000pt" viewBox="0 0 600.000000 600.000000"
 preserveAspectRatio="xMidYMid meet">

<g transform="translate(0.000000,600.000000) scale(0.100000,-0.100000)"
fill="#000000" stroke="none">
<path d="M2873 5901 c-135 -50 -225 -156 -253 -296 -8 -41 -10 -187 -8 -470 3
-406 3 -411 27 -470 34 -84 133 -183 216 -215 84 -33 206 -33 290 0 83 32 182
131 216 215 24 59 24 64 27 470 4 440 0 491 -45 578 -34 68 -107 138 -178 172
-80 38 -213 46 -292 16z"/>
<path d="M1625 5567 c-109 -37 -192 -107 -240 -205 -37 -73 -46 -204 -21 -281
9 -27 106 -206 216 -398 157 -272 211 -358 249 -394 198 -186 509 -123 623
126 32 72 33 228 1 298 -50 107 -401 703 -441 748 -27 30 -68 61 -109 81 -56
27 -78 32 -152 35 -52 2 -102 -2 -126 -10z"/>
<path d="M689 4636 c-111 -43 -191 -115 -236 -213 -69 -151 -19 -359 109 -456
66 -51 714 -418 762 -432 136 -41 304 7 397 113 18 20 46 66 63 102 27 58 31
75 31 156 0 84 -2 95 -38 166 -24 49 -53 90 -81 115 -37 32 -602 365 -736 434
-56 28 -213 37 -271 15z"/>
<path d="M397 3380 c-116 -20 -227 -107 -281 -220 -45 -95 -45 -225 0 -320 56
-117 164 -200 290 -220 82 -14 775 -13 850 1 207 38 346 233 313 440 -26 161
-152 289 -313 318 -69 13 -784 13 -859 1z"/>
<path d="M1320 2462 c-85 -29 -737 -409 -788 -460 -24 -24 -58 -73 -75 -110
-28 -60 -32 -77 -32 -157 1 -114 26 -183 96 -260 72 -78 156 -117 262 -123 63
-3 95 0 137 15 86 29 737 410 788 461 81 80 125 222 103 329 -37 186 -176 309
-359 319 -57 3 -91 -1 -132 -14z"/>
<path d="M2027 1810 c-70 -12 -146 -52 -198 -105 -31 -31 -104 -145 -229 -363
-238 -411 -240 -415 -247 -505 -27 -358 406 -555 655 -298 37 38 410 673 446
760 29 68 27 197 -4 276 -32 82 -132 183 -210 212 -68 25 -149 34 -213 23z"/>
</g>
</svg>
